<svg id="Layer_1" data-name="Layer 1" xmlns="http://www.w3.org/2000/svg" width="253.21" height="68.85" viewBox="0 0 253.21 68.85"><title>Altra Running logo - Brandlogos.net</title><path d="M315.08,396.66H312a18.26,18.26,0,0,0-7.83,1.61L257.4,418.41H272l12.42-5.58h18.47c-.74,1.86-1.49,3.72-2.23,5.58h9.82c2.38-5.95,4.77-11.86,7.13-17.85C318.69,397.85,317.16,396.66,315.08,396.66Zm-8.6,10.77h-9.26l11.3-5.08Z" transform="translate(-257.39 -349.58)" style="fill:#ea0029"/><path d="M484.77,396.66h-3.1a18.26,18.26,0,0,0-7.83,1.61l-46.76,20.15h14.59l12.42-5.58h18.45c-.74,1.86-1.49,3.72-2.23,5.58h9.82c2.38-5.95,4.75-11.86,7.13-17.85C488.38,397.85,486.85,396.66,484.77,396.66Zm-8.6,10.77h-9.26l11.3-5.08Z" transform="translate(-257.39 -349.58)" style="fill:#ea0029"/><path d="M324.89,413.62q9.53-8.49,19-17H334l-17.77,15.81c-1.3,1.16-3,5.93,4.83,5.93h26.76l5.39-4.81H324.89Z" transform="translate(-257.39 -349.58)" style="fill:#ea0029"/><path d="M430.69,409a32.31,32.31,0,0,0,9.86-4.65c5.56-4.13,2.34-7.73-2.4-7.73H356c-1.8,1.61-3.6,3.22-5.41,4.81h20.33q-6.83,6.07-13.64,12.15l-5.39,4.81h10.64l19-16.94H397l-19,16.94h11.22l9.4-8.37h19.51c3.12,0,2.13,2,1.12,2.95-2,1.82-4.07,3.62-6.1,5.43h11.68l5.39-4.79C431.72,412.26,432.11,410.34,430.69,409Zm-26.08-4.86,3.86-3.43h20.62c3.57,0,1.49,3.43-3.08,3.43Z" transform="translate(-257.39 -349.58)" style="fill:#ea0029"/><path d="M505.28,349.58c-62.69,5.06-132.45,20.83-191.78,41.86h77.28s30.4-28,114.5-41.86" transform="translate(-257.39 -349.58)" style="fill:#ea0029"/><path d="M510.61,349.58C434.45,364.09,408,391.43,408,391.43h76.23c-19.07-13.16-.74-29.9,26.39-41.86" transform="translate(-257.39 -349.58)" style="fill:#ea0029"/></svg>